<svg xmlns="http://www.w3.org/2000/svg" xmlns:xlink="http://www.w3.org/1999/xlink" fill="#cccccc" version="1.1" id="Capa_1" xml:space="preserve" viewBox="0 11.17 125.76 58.91">
<g>
	<g>
		<g>
			<polygon points="52.688,20.209 52.762,20.738 51.982,20.898 51.867,22.017 52.822,22.017 54.081,21.9 54.732,21.127      54.035,20.856 53.653,20.423 53.08,19.513 52.822,18.202 51.748,18.421 51.449,18.882 51.449,19.393 51.962,19.756    "/>
			<polygon points="51.787,20.641 51.838,19.937 51.221,19.67 50.34,19.868 49.689,20.908 49.689,21.589 50.45,21.589    "/>
			<path d="M33.574,24.122h-0.929v0.485h0.223c0,0,0.016,0.1,0.03,0.234l0.578-0.052l0.343-0.214l0.104-0.452l0.457-0.035     l0.184-0.382l-0.428-0.092l-0.362,0.01L33.574,24.122z"/>
			<polygon points="31.327,24.971 32.012,24.914 32.068,24.441 31.66,24.122 31.366,24.504    "/>
			<polygon points="102.764,47.568 100.77,47.628 100.691,46.543 101.014,46.683 101.795,46.592 101.715,45.598 99.548,45.624      98.961,44.842 98.988,44.424 96.205,41.918 95.508,42.46 99.502,47.33 100.064,47.518 100.064,47.781 99.312,47.781      99.502,48.388 104.391,48.602    "/>
			<polygon points="106.244,42.136 105.906,41.998 105.748,41.161 105.256,41.161 104.943,42.002 104.57,42.336 101.74,43.877      101.74,45.395 102.681,46.643 105.062,46.643 105.371,45.867 105.906,45.379 105.906,45.022 106.244,44.808    "/>
			<polygon points="108.006,44.808 106.574,45.36 106.604,45.678 106.244,45.678 106.244,47.657 106.967,47.657 106.867,46.395      107.43,46.604 107.43,47.488 108.025,47.448    "/>
			<polygon points="120.057,56.79 119.664,55.192 118.208,53.943 118.092,51.562 117.138,49.916 116.273,49.87 115.915,52.859      114.273,52.74 113.796,52.457 113.751,51.278 114.615,51.458 115.357,50.736 113.781,49.786 111.941,49.786 110.613,51.676      110.08,51.676 110.08,51.08 108.479,51.193 105.966,54.053 104.63,54.083 103.143,55.097 103.048,59.544 102.143,60.409      102.143,61.19 106.48,59.703 109.98,59.563 111.279,62.423 115.264,62.558 119.104,58.947    "/>
			<polygon points="111.806,64.626 113.214,64.772 114.348,64.149 114.378,63.289 113.129,63.155    "/>
			<polygon points="125.359,60.722 124.773,60.837 124.756,59.514 123.677,59.583 123.533,61.653 122.589,62.299 120.833,62.538      118.018,64.542 117.546,64.935 117.546,65.601 119.007,65.382 122.585,63.194 123.588,62.528 124.667,62.05 125.762,61.434         "/>
			<polygon points="114.293,45.946 113.383,45.976 113.458,45.026 112.588,44.514 111.363,45.748 112.189,46.762 113.975,47.021      114.969,47.543 114.999,48.03 114.343,48.03 114.378,49.034 116.535,48.896 117.32,48.055 118.172,47.976 118.172,49.518      119.629,49.518 119.629,48.896 118.887,48.896 118.764,47.021 115.264,45.433    "/>
			<polygon points="88.322,41.456 88.665,42.376 89.895,41.918 90.018,40.646 89.038,40.457    "/>
			<polygon points="73.869,52.173 72.193,51.955 72.193,53.257 72.795,53.953 72.337,54.659 71.656,55.441 71.656,56.878      72.586,57.773 73.422,56.425 75.068,54.013 75.854,50.223 74.854,50.223    "/>
			<polygon points="108.363,48.174 107.807,48.174 107.807,48.468 108.234,48.602    "/>
			<rect x="105.256" y="48.602" width="0.657" height="0.358"/>
			<polygon points="106.843,48.96 107.246,48.96 107.246,48.646 107.545,48.602 107.545,48.294 106.896,48.294 106.629,48.602      106.244,48.96 106.244,49.273 106.843,49.218    "/>
			<polygon points="108.509,49.25 109.16,49.25 109.16,48.911 109.609,48.96 109.549,48.388 108.812,48.503 108.742,48.872      107.918,48.96 107.877,48.96 107.877,49.527 108.509,49.527    "/>
			<path d="M96.701,41.202l3.854,3.7l0.204-0.657l-3.133-4.456l0.329-1.303l1.651,1.875l0.92,0.094l1.213-0.806l-0.199-1.214     l-2.01-1.608l-0.078-1.462l0.57-0.769l1.006,0.321l-0.075,0.687l0.577,0.892l0.513-0.368l-0.284-1.054l2.84-1.018l1.244-1.039     l-0.193-1.88l-2.467-2.596l-0.046-2.114h1.095l3.412,2.596l0.965-0.253l-0.646-0.836l-1.824-1.111l0.114-1.654l2.164,0.005     l0.175-2.047l-0.826-1.079l0.492-0.532l1.049,1.059l0.344-0.448l-1.367-1.541l-3.344-0.403l-0.447-0.895l0.97-1.383l0.767,0.576     l2.316,0.2l2.915-1.947l0.487,0.606l-0.651,1.019v1.007l2.681,2.191l0.85-0.443l-0.317-1.462l-1.91-1.783l2.517-0.169v-0.726     l1.209-0.246l-0.926-0.642l0.035-0.493L118,16.004l0.488-0.411l-3.457-1.457l-12.572-0.646l-1.17-0.597l-1.875-0.286     l-1.396-0.045l-1.277,1.289l-0.533-0.041l-1.696-1.258h-4.993l-2.312-1.384l-4.635,0.291l-3.513,1.584l0.021,1.822l-1.088,0.327     l-0.244-1.829l-0.409-0.631l-1.209-0.302l-0.283,1.095l0.354,0.898l-4.328-0.286l-2.059,0.952l-0.313-0.902l-0.522,0.134     l-0.378,1.002l-1.079,0.846l-2.636-0.072l-0.124-0.584l2.766-0.117l0.562-0.485l-3.327-1.547l-4.054,0.122l-2.269,1.161     l-0.856,1.524l-1.512,0.586l-0.631,0.692l0.145,0.8l0.78,0.107l0.472,1.171l1.323-0.54l0.234,1.562h-0.418l-1.088-0.162     l-1.214,0.204l-1.174,1.659l-1.691,0.271l-0.238,1.438l0.717,0.167l-0.205,0.928L51.4,24.723l-1.531,0.331l-0.32,0.855     l0.26,1.793l0.909,0.422l1.502-0.005l1.025-0.097l0.314-0.815l1.59-2.062l1.05,0.213l1.03-0.933l0.193,0.729l2.538,1.716     l-0.314,0.417l-1.144-0.067l0.433,0.626l0.711,0.155l0.825-0.343l-0.014-0.997l0.373-0.185l-0.304-0.315l-1.696-0.943     l-0.437-1.261h1.402l0.448,0.443l1.219,1.05l0.043,1.268l1.263,1.338l0.468-1.833l0.871-0.48l0.162,1.502l0.852,0.937     l2.564-0.039l0.762,0.564v1.346l-0.936,0.85H64.91l-1.581-1.182l-1.661,0.167v1.014h-0.533l-0.566-0.408l-2.88-0.734v-1.863     l-3.66,0.284l-1.135,0.607h-1.442l-0.715-0.071l-1.76,0.979v1.837l-3.601,2.604l0.303,1.104h0.726l-0.184,1.055l-0.512,0.194     l-0.03,2.76l3.104,3.541h1.353l0.094-0.218h2.426l0.708-0.646h1.377l0.761,0.76l2.055,0.209l-0.269,2.741l2.282,4.033     l-1.204,2.298l0.085,1.079l0.955,0.945v2.606l1.238,1.671v2.168h3.68l2.765-2.835l0.866-1.546l1.109-0.244V54.52l0.729-0.866     l1.538-2.119l-0.32-3.213l-0.676-1.193l3.035-2.904l3.337-4.78l-0.638-0.303l-3.477,0.731l-0.9-0.443l-3.649-6.883l0.253-0.299     l3.626,4.395l0.089,1.359l0.826,0.841l1.721-0.109l3.545-2.576l1.125-0.727l-0.019-0.898l-1.188-0.146     c0,0-4.174-1.968-4.174-2.055c0-0.09,0.025-1.686,0.025-1.686h0.925l0.134,1.164l1.93,1.114l2.213,0.106l4.781,0.784l1.127,0.709     v1.094l-0.145,1.494l2.463,4.034l0.78,0.184l0.796-1.149l0.434-3.267l0.82-1.759l1.316-0.494l2.322,0.224l2.93,2.599v3.72H96.701     z M63.031,15.514l-1.6,0.987v0.646l0.904,0.423l0.07,0.878l-1.294,1.914l-2.238-0.022l-0.139-0.458l1.398-0.714l0.015-2.648     l2.368-1.66h0.518v0.654H63.031z M68,26.799v-0.005l-2.107-0.091l-0.628,0.091v-1.435l0.474-0.534l0.506-0.16l1.125-0.127     l0.238-0.383l0.461,0.227l0.061,1.313l1.229,0.505l0.104,0.6L68,26.799L68,26.799z M76.092,27.824h-0.005l-0.373,0.35     l-0.853-0.064l-0.162-0.256l-1.338-0.103l0.094-0.427l0.717-0.61v-0.515l-1.363-0.985l-0.06-1.261l0.278-0.617l1.099-0.102     l0.931,0.391l0.045,0.651l-1.332-0.074l-0.064,0.601l1.66,1.104v0.815l0.726,0.522L76.092,27.824L76.092,27.824z"/>
			<path d="M40.224,45.842l-2.869-0.025l-2.274-0.865l-0.109-1.621l-0.76-1.329l-2.044-0.024l-1.194-1.871L29.919,39.6l-0.054,0.558     l-1.92,0.119l-0.706-0.979L25.23,38.89l-1.652,1.905l-2.59-0.438l-0.189-2.929l-1.9-0.326l0.762-1.43l-0.22-0.826l-2.481,1.667     l-1.567-0.189l-0.567-1.229l0.349-1.268l0.865-1.587l1.984-1.01h3.845l-0.01,1.171l1.383,0.637l-0.114-2.002l0.995-0.997     l2.009-1.32l0.128-0.926l2.011-2.084l2.133-1.176l-0.191-0.151l1.437-1.361l0.533,0.137l0.244,0.306l0.546-0.611l0.125-0.063     l-0.591-0.08L31.9,22.507v-0.593l0.318-0.263h0.716l0.329,0.142l0.278,0.564l0.343-0.05v-0.034l0.104,0.029l0.995-0.159     l0.138-0.487l0.557,0.142v0.525l-0.521,0.368l0.079,0.584l1.811,0.555c0,0,0.005,0.01,0.005,0.02l0.413-0.035l0.03-0.779     l-1.432-0.651l-0.085-0.383l1.189-0.408l0.049-1.131l-1.239-0.759l-0.08-1.914l-1.715,0.836h-0.621l0.163-1.46l-2.308-0.552     l-0.964,0.723v2.221l-1.727,0.54l-0.696,1.447l-0.746,0.117v-1.845l-1.622-0.229l-0.81-0.524l-0.329-1.191l2.903-1.701     l1.418-0.433l0.139,0.953l0.796-0.04l0.064-0.48l0.826-0.117l0.009-0.162l-0.348-0.154l-0.085-0.504l1.015-0.088l0.612-0.641     l0.044-0.045v0.005l0.184-0.194l2.149-0.269l0.939,0.803l-2.486,1.321l3.158,0.743l0.404-1.06h1.387l0.481-0.917l-0.968-0.245     v-1.161l-3.059-1.355L32,12.376l-1.199,0.622l0.09,1.518l-1.24-0.194l-0.189-0.835l1.18-1.084l-2.154-0.107l-0.628,0.182     l-0.274,0.733l0.817,0.14l-0.165,0.813l-1.377,0.083l-0.214,0.534l-2.014,0.057c0,0-0.045-1.136-0.125-1.136     c-0.085,0,1.567-0.024,1.567-0.024l1.193-1.167l-0.651-0.329l-0.865,0.845l-1.438-0.079l-0.86-1.193h-1.841l-1.923,1.437h1.76     l0.163,0.514l-0.462,0.433l1.95,0.058l0.298,0.701l-2.193-0.088l-0.109-0.539L19.72,13.97l-0.731-0.4L15.74,13.6l-0.999,0.972     l-0.681-0.058l-0.757-0.438l-2.243-0.672H6.947l-2.378,1.619l-1.597,0.247l-0.73,0.569l1.134,0.167v0.455H0.949L0,17.137     l1.212,1.03l3.327,0.029l0.463-0.495h2.78l1.004,0.893l-0.06,1.385l0.847,0.783l-0.706,0.505l0.159,1.822l-2.511,3.057v2.867     l1.347,0.652v2.573l1.31,2.213l1.043,0.159l0.135-0.758l-1.233-1.915l-0.244-1.865h0.731l0.313,1.92l1.8,2.623l-0.482,0.846     l1.153,1.751l2.846,0.704v-0.458l1.133,0.156l-0.104,0.816l0.89,0.154l1.383,0.388l1.95,2.218l2.486,0.185l0.244,2.034     l-1.705,1.188l-0.085,1.805l-0.238,1.115l2.461,3.083l0.189,1.049c0,0,0.896,0.244,0.995,0.244c0.109,0,2.009,1.438,2.009,1.438     v5.565l0.676,0.199l-0.472,2.566l1.139,1.512l-0.205,2.545l1.498,2.646l1.929,1.682l1.931,0.035l0.193-0.617l-1.417-1.198     l0.084-0.598l0.26-0.735l0.054-0.736l-0.97-0.029l-0.497-0.607l0.81-0.775l0.109-0.577l-0.895-0.253l0.049-0.543l1.274-0.188     l1.934-0.925l0.652-1.194l2.028-2.606l-0.461-2.024l0.622-1.084l1.864,0.055l1.253-0.985l0.408-3.924l1.394-1.775l0.248-1.134     l-1.274-0.408L40.224,45.842z M25.046,26.306h-1.035l0.166-0.704l0.487-0.052l0.109-0.239l0.741-0.102v0.632h0.004L25.046,26.306     z M25.761,24.563l-0.488,0.316l-0.611,0.106c0,0,0-0.967,0-1.069h1.099V24.563z M26.686,23.815l0.502,0.306l-0.402,0.331     l-0.383-0.331L26.686,23.815z M26.03,24.625h0.08l1.243,0.36v0.638h-1.044l-0.278-0.409L26.03,24.625L26.03,24.625z      M25.219,22.877l0.672,0.612l-0.672,0.164V22.877z M22.375,22.979l0.934-0.386h1.284v0.386h0.278v0.674h-1.954l-0.722-0.199     L22.375,22.979z M22.195,24.729l0.741-0.811h1.074l-1.377,1.925l-0.572-0.306L22.195,24.729z M21.201,20.145l0.766,0.177     l-0.265,1.04l-0.831,0.267l-0.522-1.082L21.201,20.145z M17.346,15.234v-0.061h0.712l0.064-0.246h1.165v0.51l-0.344,0.442h-1.597     V15.234z M18.476,16.817c0,0,0.716-0.126,0.771-0.126c0.055,0,0,0.713,0,0.713l-1.603,0.102l-0.302-0.363L18.476,16.817z"/>
		</g>
		
		
		
	</g>
</g>
</svg>